<svg xmlns="http://www.w3.org/2000/svg" viewBox="0 0 256 256" role="img" aria-labelledby="title desc">
  <title id="title">Push Notifications for Trigv icon</title>
  <desc id="desc">WordPress events flowing into a Trigv push notification signal.</desc>
  <defs/>

  <g>
    <circle cx="78" cy="92" r="13" fill="#000000"/>
    <circle cx="78" cy="128" r="13" fill="#000000"/>
    <circle cx="78" cy="164" r="13" fill="#000000"/>

    <path d="M94 92h33c12 0 20 8 20 20v13" fill="none" stroke="#000000" stroke-width="11" stroke-linecap="round" stroke-linejoin="round"/>
    <path d="M94 128h48" fill="none" stroke="#000000" stroke-width="11" stroke-linecap="round"/>
    <path d="M94 164h33c12 0 20-8 20-20v-13" fill="none" stroke="#000000" stroke-width="11" stroke-linecap="round" stroke-linejoin="round"/>

    <path d="M160 77c24 13 39 36 39 63s-15 50-39 63" fill="none" stroke="#ff3253" stroke-width="15" stroke-linecap="round"/>
    <path d="M168 111c9 7 15 17 15 29s-6 22-15 29" fill="none" stroke="#000000" stroke-width="15" stroke-linecap="round"/>
    <path d="M144 118a22 22 0 1 1 0 44a22 22 0 0 1 0-44Zm0 13a9 9 0 1 0 0 18a9 9 0 0 0 0-18Z" fill="#000000" fill-rule="evenodd"/>
  </g>
</svg>
